<?xml version="1.0" standalone="no"?>
<!DOCTYPE svg PUBLIC "-//W3C//DTD SVG 20010904//EN"
 "http://www.w3.org/TR/2001/REC-SVG-20010904/DTD/svg10.dtd">
<svg version="1.0" xmlns="http://www.w3.org/2000/svg"
 width="1680.000000pt" height="1050.000000pt" viewBox="0 0 1680.000000 1050.000000"
 preserveAspectRatio="xMidYMid meet">

<g transform="translate(0.000000,1050.000000) scale(0.100000,-0.100000)"
fill="#000000" stroke="none">
<path d="M0 5250 l0 -5250 8400 0 8400 0 0 5250 0 5250 -8400 0 -8400 0 0
-5250z m5320 2653 c-74 -2 -139 -8 -144 -13 -11 -11 -213 -2 -236 11 -8 5 104
8 250 7 146 -2 204 -4 130 -5z m338 -60 c-10 -2 -26 -2 -35 0 -10 3 -2 5 17 5
19 0 27 -2 18 -5z m945 0 c-7 -2 -21 -2 -30 0 -10 3 -4 5 12 5 17 0 24 -2 18
-5z m-835 -10 c-10 -2 -28 -2 -40 0 -13 2 -5 4 17 4 22 1 32 -1 23 -4z m955 0
c-13 -2 -33 -2 -45 0 -13 2 -3 4 22 4 25 0 35 -2 23 -4z m464 -59 c-3 -3 -12
-4 -19 -1 -8 3 -5 6 6 6 11 1 17 -2 13 -5z m-804 -11 c-7 -2 -19 -2 -25 0 -7
3 -2 5 12 5 14 0 19 -2 13 -5z m860 0 c-7 -2 -19 -2 -25 0 -7 3 -2 5 12 5 14
0 19 -2 13 -5z m-790 -10 c-7 -2 -19 -2 -25 0 -7 3 -2 5 12 5 14 0 19 -2 13
-5z m844 1 c-3 -3 -12 -4 -19 -1 -8 3 -5 6 6 6 11 1 17 -2 13 -5z m-408 -70
c9 -8 -45 -2 -64 6 -14 7 -8 8 20 3 22 -3 42 -7 44 -9z m728 0 c-3 -3 -12 -4
-19 -1 -8 3 -5 6 6 6 11 1 17 -2 13 -5z m-680 -10 c-3 -3 -12 -4 -19 -1 -8 3
-5 6 6 6 11 1 17 -2 13 -5z m318 -65 c32 -13 -3 -10 -70 6 l-60 14 55 -6 c30
-3 64 -9 75 -14z m602 5 c-3 -3 -12 -4 -19 -1 -8 3 -5 6 6 6 11 1 17 -2 13 -5z
m-550 -20 c-3 -3 -12 -4 -19 -1 -8 3 -5 6 6 6 11 1 17 -2 13 -5z m160 -40 c-3
-3 -12 -4 -19 -1 -8 3 -5 6 6 6 11 1 17 -2 13 -5z m40 -10 c-3 -3 -12 -4 -19
-1 -8 3 -5 6 6 6 11 1 17 -2 13 -5z m743 -64 c8 -5 11 -10 5 -10 -5 0 -17 5
-25 10 -8 5 -10 10 -5 10 6 0 17 -5 25 -10z m-251 -81 c34 -12 60 -23 58 -25
-2 -2 -35 7 -73 20 -38 14 -64 25 -58 25 5 1 38 -8 73 -20z m435 6 c21 -9 36
-22 36 -32 0 -15 -1 -15 -12 -1 -7 9 -26 23 -43 32 -39 20 -28 20 19 1z m-334
-45 c8 -5 11 -10 5 -10 -5 0 -17 5 -25 10 -8 5 -10 10 -5 10 6 0 17 -5 25 -10z
m100 -36 c23 -9 39 -18 37 -20 -2 -3 -24 4 -48 15 -54 24 -45 27 11 5z m257
-21 c-3 -10 -5 -4 -5 12 0 17 2 24 5 18 2 -7 2 -21 0 -30z m-127 -38 c6 -8 10
-20 7 -27 -4 -8 -6 -7 -6 4 -1 9 -9 22 -18 27 -10 6 -13 11 -7 11 6 0 17 -7
24 -15z m117 -27 c-3 -7 -5 -2 -5 12 0 14 2 19 5 13 2 -7 2 -19 0 -25z m-100
-40 c-3 -8 -6 -5 -6 6 -1 11 2 17 5 13 3 -3 4 -12 1 -19z m90 -95 c-2 -21 -4
-4 -4 37 0 41 2 58 4 38 2 -21 2 -55 0 -75z m-157 76 c7 -11 9 -23 7 -26 -3
-2 -8 5 -12 16 -6 20 -12 21 -408 24 l-402 2 402 3 c399 2 402 2 413 -19z
m-990 1 c-262 -11 -499 -18 -455 -14 93 10 340 21 475 21 l145 0 -165 -7z
m1067 -22 c-3 -8 -6 -5 -6 6 -1 11 2 17 5 13 3 -3 4 -12 1 -19z m-1712 -13
c-82 -7 -172 -13 -200 -12 -27 0 9 6 80 12 72 7 162 12 200 12 44 0 14 -4 -80
-12z m1664 -82 c1 -31 -1 -33 -31 -32 -32 2 -32 2 -4 6 28 4 28 5 23 56 -4 35
-3 44 3 27 4 -14 8 -40 9 -57z m173 -288 c34 -95 64 -171 157 -400 22 -55 41
-105 41 -112 0 -6 -55 -48 -122 -94 -138 -93 -242 -187 -298 -269 -118 -173
-189 -395 -221 -689 -46 -421 117 -777 461 -1011 78 -53 241 -133 335 -164
121 -39 252 -55 555 -66 402 -14 574 -28 715 -56 79 -16 319 -94 312 -101 -3
-2 -43 9 -89 26 -96 33 -289 75 -423 91 -49 5 -250 17 -445 26 -462 20 -503
25 -660 81 -413 148 -688 441 -767 818 -9 46 -14 125 -13 228 1 313 91 639
227 825 78 107 163 182 317 282 68 44 96 68 96 82 0 11 -24 79 -54 151 -29 73
-70 173 -90 222 -53 133 -156 455 -156 486 1 8 20 -47 44 -121 23 -74 59 -180
78 -235z m-2162 344 c-41 -4 -185 -17 -320 -28 -135 -12 -274 -24 -310 -27
-36 -4 -63 -4 -60 -1 11 12 566 63 700 64 l65 0 -75 -8z m1183 -56 c-156 -2
-410 -2 -565 0 -156 1 -29 2 282 2 311 0 438 -1 283 -2z m-1900 -10 c-13 -2
-33 -2 -45 0 -13 2 -3 4 22 4 25 0 35 -2 23 -4z m980 0 c-34 -2 -93 -2 -130 0
-37 2 -9 3 62 3 72 0 102 -1 68 -3z m1415 0 c-38 -2 -98 -2 -135 0 -38 2 -7 3
67 3 74 0 105 -1 68 -3z m478 -153 c60 -250 160 -365 408 -466 86 -35 90 -36
289 -45 327 -14 421 -33 720 -145 111 -42 209 -73 219 -71 10 3 51 -17 98 -49
45 -30 100 -59 122 -66 37 -11 41 -10 57 10 l17 23 69 -61 c82 -71 162 -127
190 -132 17 -2 21 3 23 35 2 20 7 37 11 37 4 0 43 -36 86 -81 121 -122 125
-124 225 -124 l85 0 46 -70 c172 -258 169 -253 169 -299 0 -44 1 -45 81 -106
94 -71 134 -92 210 -114 31 -9 64 -23 75 -31 18 -14 18 -16 -16 -45 -92 -80
-163 -129 -175 -122 -8 4 -50 42 -95 85 -97 93 -200 162 -366 246 -67 34 -134
71 -149 83 -35 27 -64 92 -65 140 0 70 -13 86 -107 129 -280 130 -910 387
-1041 425 -117 33 -282 47 -491 41 -202 -6 -254 -17 -386 -82 -90 -44 -250
-170 -287 -227 -10 -15 -28 -37 -40 -51 -13 -14 -43 -65 -67 -113 -24 -49 -48
-97 -53 -108 -20 -39 -57 -166 -74 -252 -51 -272 63 -594 290 -820 144 -143
307 -218 541 -248 66 -8 269 -22 450 -31 348 -16 531 -29 630 -45 33 -5 82
-12 109 -15 123 -15 441 -94 634 -159 127 -43 276 -105 269 -113 -2 -1 -60 19
-128 46 -242 95 -458 155 -721 201 -245 42 -398 57 -808 75 -470 21 -589 39
-758 116 -327 148 -575 590 -531 949 12 105 74 293 134 409 106 205 331 397
533 454 70 20 100 21 352 22 250 0 283 -2 361 -22 179 -45 1166 -456 1191
-496 4 -7 8 -29 8 -51 0 -55 19 -110 49 -145 15 -17 86 -61 166 -102 183 -94
254 -142 365 -245 79 -74 93 -83 108 -72 9 7 50 37 89 67 40 29 71 57 68 61
-2 4 -38 19 -80 35 -78 28 -168 81 -241 143 -40 33 -44 41 -44 80 0 35 -8 55
-43 105 -24 34 -70 103 -101 154 -32 51 -64 97 -70 102 -8 7 -35 7 -76 1 -82
-12 -100 -2 -215 114 l-90 91 -3 -37 c-3 -32 -7 -38 -26 -38 -30 0 -107 49
-188 121 -71 63 -82 68 -92 43 -11 -30 -105 5 -200 74 -31 23 -63 37 -86 39
-21 1 -100 27 -176 57 -312 121 -406 141 -724 156 -237 10 -267 17 -415 90
-151 75 -242 174 -296 320 -32 89 -60 213 -58 258 2 26 2 25 6 -3 3 -16 16
-77 29 -135z m-3071 130 c-71 -10 -143 -18 -160 -18 -46 1 194 35 245 35 25 1
-13 -8 -85 -17z m815 5 c-184 -14 -393 -25 -342 -18 84 11 355 31 427 30 55 0
29 -3 -85 -12z m1983 8 c-23 -2 -64 -2 -90 0 -26 2 -7 3 42 3 50 0 71 -1 48
-3z m-2993 -33 c0 -5 -17 -10 -37 -9 -34 1 -35 2 -13 9 36 11 50 11 50 0z
m598 -7 c-15 -2 -42 -2 -60 0 -18 2 -6 4 27 4 33 0 48 -2 33 -4z m-703 -8 c-5
-2 -75 -13 -155 -25 -160 -23 -593 -99 -599 -106 -7 -7 31 -4 134 10 55 8 172
22 260 31 88 9 252 27 365 41 113 13 218 24 234 24 52 0 22 -9 -50 -15 -38 -3
-215 -23 -394 -45 -581 -69 -701 -82 -706 -77 -21 21 181 60 801 155 60 10
129 14 110 7z m604 1 c-11 -9 -120 -16 -114 -6 3 5 31 10 62 10 31 0 54 -2 52
-4z m-131 -11 c-3 -3 -50 -7 -104 -9 -67 -2 -83 -1 -49 4 62 9 160 12 153 5z
m2761 -79 c15 -18 52 -126 46 -136 -6 -9 -95 -19 -235 -25 -386 -18 -1060
-145 -1550 -291 -167 -50 -548 -181 -633 -217 -18 -8 -84 -35 -147 -62 -188
-77 -408 -179 -957 -441 -73 -35 -135 -59 -138 -54 -18 29 489 315 825 465 58
26 119 53 135 60 34 15 169 71 295 122 730 294 1847 587 2261 592 62 1 90 -3
98 -13z m1796 -400 c305 -160 539 -319 769 -523 116 -103 145 -138 129 -154
-22 -22 -61 2 -169 102 -60 56 -129 118 -154 138 -25 20 -47 39 -50 42 -12 14
-243 182 -325 235 -49 32 -146 91 -215 130 -68 39 -126 77 -128 84 -6 18 30 5
143 -54z m1049 -996 c39 -44 44 -58 21 -66 -33 -13 -95 56 -82 90 10 24 21 20
61 -24z m-2184 -84 c0 -11 -19 -15 -25 -6 -3 5 1 10 9 10 9 0 16 -2 16 -4z
m250 0 c0 -11 -19 -15 -25 -6 -3 5 1 10 9 10 9 0 16 -2 16 -4z m247 -2 c-3 -3
-12 -4 -19 -1 -8 3 -5 6 6 6 11 1 17 -2 13 -5z m-503 -152 c3 -5 -1 -9 -9 -9
-8 0 -15 4 -15 9 0 4 4 8 9 8 6 0 12 -4 15 -8z m-130 -74 c-3 -5 -12 -4 -20 3
-19 16 -18 18 6 12 11 -3 17 -9 14 -15z m250 0 c-3 -5 -12 -4 -20 3 -19 16
-18 18 6 12 11 -3 17 -9 14 -15z m256 2 c0 -5 -2 -10 -4 -10 -3 0 -8 5 -11 10
-3 6 -1 10 4 10 6 0 11 -4 11 -10z m260 6 c0 -3 -4 -8 -10 -11 -5 -3 -10 -1
-10 4 0 6 5 11 10 11 6 0 10 -2 10 -4z m-510 -150 c0 -2 -7 -7 -16 -10 -8 -3
-12 -2 -9 4 6 10 25 14 25 6z m-130 -78 c0 -5 -11 -1 -25 8 -14 9 -25 18 -25
20 0 2 11 -2 25 -8 14 -6 25 -15 25 -20z m260 7 c-7 -9 -15 -13 -19 -10 -3 3
1 10 9 15 21 14 24 12 10 -5z m250 1 c0 -3 -4 -8 -10 -11 -5 -3 -10 -1 -10 4
0 6 5 11 10 11 6 0 10 -2 10 -4z m497 -108 c-2 -13 -4 -3 -4 22 0 25 2 35 4
23 2 -13 2 -33 0 -45z m1263 -1043 c25 -13 41 -24 35 -24 -5 0 -30 11 -55 24
-25 13 -40 24 -35 24 6 0 30 -11 55 -24z m-503 -2 c-25 -4 -27 -7 -15 -20 12
-15 11 -15 -9 -4 -34 18 -28 31 15 30 31 -2 32 -3 9 -6z m98 -13 c14 -7 8 -8
-20 -3 -22 3 -42 7 -44 9 -9 8 45 2 64 -6z"/>
<path d="M8160 6903 c-14 -2 -104 -15 -200 -28 -277 -39 -670 -132 -1105 -262
-592 -176 -1163 -401 -1615 -634 -169 -88 -413 -230 -406 -237 3 -2 101 42
218 98 487 234 746 348 1073 470 613 228 1379 400 1960 440 285 20 285 20 284
38 0 9 -8 40 -18 67 l-18 50 -74 1 c-41 1 -85 0 -99 -3z"/>
<path d="M10221 6436 c2 -2 47 -32 99 -66 213 -140 402 -284 535 -410 132
-125 165 -148 165 -116 0 29 -233 230 -432 374 -94 68 -345 222 -361 222 -6 0
-8 -2 -6 -4z"/>
<path d="M11140 5517 c0 -16 37 -57 52 -57 16 0 8 17 -22 45 -23 22 -30 25
-30 12z"/>
</g>
</svg>
